<svg width="32" height="32" viewBox="0 0 32 32" fill="none" xmlns="http://www.w3.org/2000/svg">
<path d="M22 8.00004V23.3334C22 26.28 19.6134 28.6667 16.6667 28.6667C13.72 28.6667 11.3334 26.28 11.3334 23.3334V6.66671C11.3334 4.82671 12.8267 3.33337 14.6667 3.33337C16.5067 3.33337 18 4.82671 18 6.66671V20.6667C18 21.4 17.4 22 16.6667 22C15.9334 22 15.3334 21.4 15.3334 20.6667V8.00004H13.3334V20.6667C13.3334 22.5067 14.8267 24 16.6667 24C18.5067 24 20 22.5067 20 20.6667V6.66671C20 3.72004 17.6134 1.33337 14.6667 1.33337C11.72 1.33337 9.33337 3.72004 9.33337 6.66671V23.3334C9.33337 27.3867 12.6134 30.6667 16.6667 30.6667C20.72 30.6667 24 27.3867 24 23.3334V8.00004H22Z" fill="white"/>
</svg>
